<?xml version="1.0" standalone="no"?><!DOCTYPE svg PUBLIC "-//W3C//DTD SVG 1.1//EN" "http://www.w3.org/Graphics/SVG/1.1/DTD/svg11.dtd"><svg t="1594011463226" class="icon" viewBox="0 0 1024 1024" version="1.1" xmlns="http://www.w3.org/2000/svg" p-id="7888" xmlns:xlink="http://www.w3.org/1999/xlink" width="200" height="200"><defs><style type="text/css"></style></defs><path d="M832 320a32 32 0 0 0 22.56-54.72 33.136 33.136 0 0 0-45.28 0.16A32 32 0 0 0 800 288a32 32 0 0 0 32 32z" fill="#231F20" p-id="7889"></path><path d="M992 128H672a32 32 0 0 0-32 32v704a32 32 0 0 0 32 32h320a32 32 0 0 0 32-32V160a32 32 0 0 0-32-32zM704 600.512l111.536 66.928a32 32 0 0 0 32.928 0L960 600.512V736H704zM704 192h256v333.872l-128 76.8-128-76.8z m256 640H704v-32h256zM480 320H96a96.096 96.096 0 0 0-96 96v256a96.096 96.096 0 0 0 96 96h87.008l-16 64H128a32 32 0 0 0 0 64h320a32 32 0 0 0 0-64h-39.024l-16-64H480a96.096 96.096 0 0 0 96-96V416a96.096 96.096 0 0 0-96-96zM64 416a32 32 0 0 1 32-32h384a32 32 0 0 1 32 32v192H64z m279.008 416h-110.032l16-64h78.032zM480 704H96a32 32 0 0 1-32-32h448a32 32 0 0 1-32 32z" fill="#231F20" p-id="7890"></path><path d="M896 416a32 32 0 0 0-32-32h-64a32 32 0 0 0 0 64h64a32 32 0 0 0 32-32z" fill="#231F20" p-id="7891"></path></svg>