<?xml version="1.0" standalone="no"?><!DOCTYPE svg PUBLIC "-//W3C//DTD SVG 1.1//EN" "http://www.w3.org/Graphics/SVG/1.1/DTD/svg11.dtd"><svg t="1594025212192" class="icon" viewBox="0 0 1024 1024" version="1.1" xmlns="http://www.w3.org/2000/svg" p-id="2948" xmlns:xlink="http://www.w3.org/1999/xlink" width="200" height="200"><defs><style type="text/css"></style></defs><path d="M992.023273 142.941091L791.970909 27.973818a34.909091 34.909091 0 0 0-34.443636 0L557.614545 142.894545a34.583273 34.583273 0 0 0-17.221818 30.021819v9.681454l-11.031272-6.330182a34.909091 34.909091 0 0 0-34.490182 0l-11.124364 6.469819v-9.821091a34.816 34.816 0 0 0-17.361454-30.021819L266.333091 27.973818a34.909091 34.909091 0 0 0-34.443636 0L31.837091 142.894545a34.443636 34.443636 0 0 0-17.361455 30.021819v230.818909c0 12.334545 6.562909 23.738182 17.361455 30.021818l199.959273 114.967273a34.583273 34.583273 0 0 0 34.443636 0l11.170909-6.423273v9.774545c0 12.334545 6.656 23.784727 17.361455 30.021819l7.074909 4.049454-7.074909 4.002909a34.676364 34.676364 0 0 0-17.361455 30.021818v230.865455c0 12.288 6.656 23.738182 17.361455 29.975273l199.959272 114.967272a34.909091 34.909091 0 0 0 34.443637 0l199.959272-114.967272a34.676364 34.676364 0 0 0 17.361455-30.021819v-230.725818a34.816 34.816 0 0 0-17.361455-29.975272l-7.074909-4.049455 7.074909-4.049455a34.676364 34.676364 0 0 0 17.361455-29.975272v-9.728l11.031273 6.330182a34.909091 34.909091 0 0 0 34.443636 0l200.005818-115.060364a34.769455 34.769455 0 0 0 17.454546-30.021818v-230.865455a34.536727 34.536727 0 0 0-17.454546-29.975273zM249.064727 468.014545L93.090909 378.414545V198.376727l156.020364-89.693091 155.973818 89.693091v29.556364l-110.312727 63.394909a34.676364 34.676364 0 0 0-17.314909 29.975273v130.466909l-28.392728 16.290909z m155.973818-182.178909v92.625455l-77.451636 44.544v-92.625455l77.451636-44.544z m262.935273 359.889455v180.037818L512 915.409455l-156.020364-89.646546v-180.037818l24.669091-14.149818 114.129455 65.536a34.909091 34.909091 0 0 0 34.443636 0l114.129455-65.536 24.669091 14.149818z m-236.962909-43.194182l80.942546-46.545454 80.98909 46.545454L512 649.122909l-80.989091-46.545454z m265.309091-59.345454l-24.529455 14.196363-142.615272-81.92a34.909091 34.909091 0 0 0-34.443637 0l-142.615272 81.92-24.529455-14.196363v-29.649455l138.658909-79.732364a34.676364 34.676364 0 0 0 17.361455-30.021818V240.686545l28.439272-16.337454 28.253091 16.244364v163.281454c0 12.334545 6.562909 23.784727 17.221819 30.021818l138.798545 79.732364v29.556364z m0-120.180364l-77.451636-44.683636V285.696l77.451636 44.590545v92.765091zM930.909091 378.321455l-156.113455 89.69309-28.253091-16.104727V321.303273c0-12.334545-6.516364-23.738182-17.221818-29.975273l-110.405818-63.488v-29.463273l155.973818-89.693091L930.909091 198.376727v179.991273z" p-id="2949"></path></svg>